<svg width="295" height="309" viewBox="0 0 295 309" fill="none" xmlns="http://www.w3.org/2000/svg">
<path fill-rule="evenodd" clip-rule="evenodd" d="M4.89804 10.254C7.59117 15.8943 40.5399 85.3627 78.1166 164.629C115.693 243.895 146.835 308.862 147.32 308.999C148.055 309.206 163.853 276.989 184.557 233.063L189.05 223.53L147.914 136.525C125.289 88.672 101.521 38.3812 95.0946 24.7688L83.4118 0.0180068L41.7054 0.00900433L0 0L4.89804 10.254ZM205.128 14.2556C201.402 22.0967 191.189 43.7203 182.43 62.3096C166.56 95.9939 166.501 96.0999 164.698 93.822C159.638 87.4295 142.482 60.741 135.436 48.3001C131.037 40.531 127.308 34.3025 127.151 34.4596C126.794 34.8167 157.874 102.206 177.466 143.557C185.548 160.613 199.036 189.425 207.439 207.582C229.564 255.387 231.313 259.095 231.612 258.798C231.759 258.65 230.083 253.818 227.887 248.061C222.373 233.602 214.734 208.883 211.447 194.866L208.701 183.151L251.851 92.1744C275.583 42.1376 295 0.928367 295 0.599238C295 0.269107 276.303 0 253.451 0H211.901L205.128 14.2556Z" fill="url(#paint0_linear_2045_23)"/>
<path d="M148.41 285L18 11H75.6814L177 223.388L148.41 285Z" stroke="black" stroke-width="3"/>
<path d="M219.22 11L173 107L203.144 168L278 11H219.22Z" stroke="black" stroke-width="3"/>
<defs>
<linearGradient id="paint0_linear_2045_23" x1="3.5" y1="3.5" x2="147.5" y2="309" gradientUnits="userSpaceOnUse">
<stop stop-color="#F1BD36"/>
<stop offset="1" stop-color="#DDA108"/>
</linearGradient>
</defs>
</svg>
